<svg xmlns="http://www.w3.org/2000/svg" viewBox="0 0 200.149 101.575"><defs><style>.a{fill:#282828;}.b{fill:#f5f5f5;font-size:29px;font-family:Audiowide-Regular, Audiowide;letter-spacing:0.04em;}.c,.d{fill:none;}.c{stroke:#0087ff;stroke-width:4px;}.e,.f,.g{stroke:none;}.f{fill:#f9cd46;}.g{fill:#fff;}</style></defs><g transform="translate(0)"><g class="a" transform="translate(2.45 7.817)"><path class="e" d="M -0.1601755172014236 91.75797271728516 L -0.4438422322273254 2.00001335144043 L 174.3729400634766 2.00001335144043 L 174.3729400634766 91.71898651123047 L -0.1601755172014236 91.75797271728516 Z"/><path class="f" d="M 1.833497047424316 89.75752258300781 L 172.3729248046875 89.71943664550781 L 172.3729248046875 3.999993324279785 L 1.562467336654663 3.999993324279785 L 1.833497047424316 89.75752258300781 M -2.153872013092041 93.75841522216797 L -2.450187921524048 -6.729929282300873e-06 L 176.3729248046875 -6.729929282300873e-06 L 176.3729248046875 93.71854400634766 L -2.153872013092041 93.75841522216797 Z"/></g><text class="b" transform="translate(93.663 50.336)"><tspan x="-66.748" y="0">- About</tspan></text><line class="c" x2="168.913" transform="translate(23.131 76.11)"/><g class="d" transform="translate(11.046 0)"><path class="e" d="M0,0H189.1V91.617H0V0Z"/><path class="g" d="M 185.1030426025391 87.61650848388672 L 185.1030426025391 4.000008106231689 L 4.000013828277588 4.000008106231689 L 4.000013828277588 41.92903518676758 L 4.000013828277588 87.61650848388672 L 11.35709667205811 87.61650848388672 L 185.1030426025391 87.61650848388672 M 189.1030426025391 91.61650848388672 L 11.35709667205811 91.61650848388672 L 1.367187542200554e-05 91.61650848388672 L 1.367187542200554e-05 41.92903518676758 L 1.367187542200554e-05 8.056640581344254e-06 L 189.1030426025391 8.056640581344254e-06 L 189.1030426025391 91.61650848388672 Z"/></g></g></svg>